<svg width="80" height="29" viewBox="0 0 80 29" fill="none" xmlns="http://www.w3.org/2000/svg">
<g clip-path="url(#clip0_357_1033)">
<path d="M5.59313 6.14096H9.77004V6.14814L9.75808 8.97342H5.53333V21.4372H2.45686L2.50471 8.97342H0L0.0143536 6.14096H2.49753V4.7678C2.49753 3.27024 2.9401 2.10281 3.82764 1.26073C4.71517 0.42104 5.8515 0 7.23902 0C8.08827 0 10.0428 0.110045 10.7078 0.332526V3.05015C10.282 2.86594 8.54041 2.77264 7.87536 2.77264C7.06199 2.77264 6.4711 2.95206 6.1003 3.3133C5.72949 3.67453 5.54529 4.27978 5.54529 5.12903V6.14096H5.59074H5.59313ZM44.2188 21.4491H47.2905V0.00717682H44.2188V21.4491ZM76.6341 6.15771L72.4548 15.423L68.2779 6.15771H64.9119L70.7682 19.1836L66.7157 28.2432H70.0816L72.4572 22.9419L74.1389 19.186L80.0024 6.1601H76.6365L76.6341 6.15771ZM51.6875 0.00717682H51.6109C51.6109 0.00717682 51.5942 0.00956909 51.587 0.00956909C50.7592 0.0287073 50.1062 0.71529 50.1253 1.54062C50.1444 2.36835 50.831 3.02144 51.6563 3.0023H51.7353C52.5511 2.98316 53.2018 2.31094 53.197 1.49517C53.1898 0.667444 52.5152 0.00239227 51.6875 0.00717682ZM50.1253 21.4491H53.197V6.15771H50.1253V21.4491ZM59.2446 14.6646C59.2016 13.1862 59.2638 8.98777 59.2638 8.98777H63.4263V6.1601H59.2494V0.0143536H56.1754V14.9015C56.1754 17.0952 56.9528 18.5425 58.5102 20.009C60.0676 21.473 61.9503 21.4491 64.1631 21.4491V18.6621C62.9551 18.6621 61.558 18.6621 60.6154 17.8033C59.7303 17.0019 59.2853 15.9517 59.247 14.6646H59.2446ZM42.1279 13.4541C42.1351 13.569 42.1351 13.679 42.1351 13.7915C42.1351 13.8919 42.1327 14.002 42.1279 14.1288C42.1279 14.179 42.1231 14.2316 42.1231 14.2843C42.1184 14.301 42.1184 14.3178 42.1184 14.3369C42.1136 14.4111 42.1088 14.4852 42.1016 14.5594C40.4892 14.5378 38.7955 14.5283 37.0085 14.5283C35.2214 14.5283 32.9703 14.5378 30.0254 14.5594C30.0709 14.8584 30.1091 15.1527 30.2024 15.4421C30.4345 16.2555 30.901 16.9851 31.5421 17.5354L31.5565 17.5497C32.3914 18.3368 33.5038 18.765 34.6497 18.7387C36.0396 18.7913 37.3649 18.1526 38.1879 17.0354C38.4534 16.7076 38.6687 16.3416 38.8266 15.9517H41.8528C41.5562 17.0426 41.0083 18.0497 40.2524 18.8942C40.2452 18.9061 40.238 18.9181 40.2261 18.9301C40.0538 19.1214 39.8744 19.3056 39.6854 19.4851C39.5227 19.6358 39.3577 19.7841 39.1806 19.9205C39.0634 20.0161 38.939 20.1094 38.817 20.1932C38.7213 20.2626 38.6161 20.3295 38.5156 20.3941C38.4151 20.4587 38.3099 20.5209 38.2046 20.5783C38.0993 20.6357 37.9893 20.6932 37.884 20.741C37.8099 20.7817 37.7333 20.8152 37.6568 20.8463C37.5778 20.8798 37.4989 20.9109 37.4199 20.942C37.4032 20.9515 37.384 20.9563 37.3673 20.9635C37.2525 21.0089 37.1353 21.0496 37.0156 21.0879C36.5157 21.2482 35.9989 21.3582 35.475 21.4108C35.2071 21.4372 34.932 21.4491 34.6497 21.4491C32.6306 21.4826 30.6881 20.6716 29.291 19.21C27.8437 17.7842 27.0446 15.8249 27.0805 13.7915C27.0446 11.758 27.8461 9.79875 29.2934 8.37296C30.9225 6.75099 33.1904 5.94241 35.4774 6.17206C35.7406 6.20077 36.0013 6.24144 36.2549 6.29407C36.5133 6.3467 36.7668 6.41608 37.018 6.49502C37.1376 6.53569 37.2573 6.57397 37.3697 6.61942C37.3888 6.62181 37.4056 6.62899 37.4223 6.64095C37.5013 6.66966 37.5802 6.70076 37.6592 6.73664C37.7357 6.76774 37.8123 6.80123 37.8864 6.8419C38.6639 7.22227 39.3696 7.7414 39.9677 8.37056C40.061 8.46147 40.1471 8.55955 40.2309 8.65524C41.3193 9.86573 41.9772 11.404 42.1016 13.0259C42.1088 13.1001 42.1136 13.1742 42.1184 13.2508C42.1231 13.2652 42.1231 13.2795 42.1184 13.2939C42.1231 13.3513 42.1279 13.3991 42.1279 13.4518V13.4541ZM39.0108 12.1384C38.7548 11.215 38.2022 10.4016 37.4367 9.82507C36.6257 9.25092 35.6473 8.95667 34.6545 8.98777C33.6473 8.96146 32.6569 9.25331 31.8268 9.82507C31.7359 9.89205 31.6474 9.96142 31.5589 10.0332L31.5469 10.0452C30.9058 10.5954 30.4393 11.325 30.2072 12.1384H39.0108ZM25.2313 13.4541C25.2385 13.569 25.2385 13.679 25.2385 13.7938C25.2385 13.8943 25.2361 14.0044 25.2313 14.1312C25.2313 14.179 25.2265 14.2316 25.2265 14.2843C25.2217 14.301 25.2217 14.3201 25.2217 14.3369C25.2169 14.4111 25.2122 14.4852 25.205 14.5618C23.5926 14.5378 21.8989 14.5307 20.1142 14.5307C18.4038 14.5283 16.0761 14.5378 13.1312 14.5618C13.1742 14.8608 13.2173 15.1551 13.3106 15.4421C13.5403 16.2579 14.0068 16.9851 14.6503 17.5354L14.6622 17.5497C15.4971 18.3392 16.6096 18.765 17.7578 18.7387C19.1454 18.7913 20.4707 18.155 21.296 17.0354C21.5592 16.7076 21.7721 16.3416 21.93 15.9517H24.9562C24.6595 17.0426 24.1141 18.0497 23.3582 18.8918C23.3534 18.9061 23.3438 18.9181 23.3318 18.9277C23.162 19.1214 22.9802 19.3056 22.7936 19.4851C22.6309 19.6334 22.4634 19.7841 22.2888 19.9205C22.1692 20.0161 22.0472 20.1071 21.9228 20.1908C21.8271 20.2626 21.7218 20.3295 21.6214 20.3941C21.5209 20.4587 21.4156 20.5209 21.3104 20.5783C21.2051 20.6357 21.0951 20.6932 20.9898 20.741C20.9156 20.7793 20.8415 20.8152 20.7625 20.8463C20.6836 20.8798 20.6046 20.9109 20.5257 20.942C20.509 20.9491 20.4922 20.9539 20.4731 20.9635C20.3606 21.0065 20.2434 21.0472 20.1238 21.0855C19.6214 21.2482 19.1047 21.3558 18.5832 21.4108C18.3152 21.4348 18.0377 21.4491 17.7578 21.4491C15.7364 21.4826 13.7938 20.6716 12.3992 19.21C10.9494 17.7818 10.1504 15.8225 10.1863 13.7891C10.1504 11.758 10.9518 9.79875 12.3992 8.37296C13.7938 6.91128 15.7364 6.1003 17.7578 6.13379C18.033 6.13379 18.3081 6.14336 18.5832 6.17206C18.8463 6.20316 19.1047 6.24144 19.3583 6.29407C19.6166 6.34909 19.8726 6.41608 20.1238 6.49502C20.241 6.53569 20.3606 6.57397 20.4731 6.61942C20.4922 6.62181 20.5113 6.62899 20.5257 6.64095C20.6046 6.66966 20.6836 6.70076 20.7625 6.73664C20.8415 6.76774 20.9156 6.80123 20.9898 6.8419C21.7697 7.22227 22.473 7.7414 23.0711 8.37056C23.1644 8.46147 23.2529 8.55955 23.3366 8.65524C24.4251 9.86573 25.0806 11.404 25.205 13.0259C25.2146 13.1001 25.2193 13.1742 25.2241 13.2508C25.2241 13.2652 25.2241 13.2795 25.2241 13.2939C25.2241 13.3513 25.2313 13.3991 25.2313 13.4518V13.4541ZM22.1166 12.1384C21.8582 11.215 21.3056 10.4016 20.5401 9.82507C19.7291 9.25092 18.7506 8.95667 17.7578 8.98777C16.7507 8.96146 15.7603 9.25331 14.9302 9.82507C14.8393 9.89205 14.7508 9.96142 14.6622 10.0332L14.6527 10.0452C14.0092 10.5954 13.5427 11.325 13.313 12.1384H22.1166Z" fill="#080808"/>
</g>
<defs>
<clipPath id="clip0_357_1033">
<rect width="80" height="28.2432" fill="white"/>
</clipPath>
</defs>
</svg>
