<svg width="32" height="32" viewBox="0 0 32 32" fill="none" xmlns="http://www.w3.org/2000/svg">
<path d="M16.0364 0H15.9636C7.14714 0 0 7.14923 0 15.9683V16.0412C0 24.8602 7.14714 32.0094 15.9636 32.0094H16.0364C24.8529 32.0094 32 24.8602 32 16.0412V15.9683C32 7.14923 24.8529 0 16.0364 0Z" fill="#080808"/>
<path d="M7.63069 10.6405C7.20915 10.2491 6.99951 9.76462 6.99951 9.18819C6.99951 8.61177 7.21027 8.106 7.63069 7.71349C8.05223 7.32211 8.59485 7.12585 9.25967 7.12585C9.92449 7.12585 10.4458 7.32211 10.8662 7.71349C11.2878 8.10487 11.4974 8.59719 11.4974 9.18819C11.4974 9.7792 11.2867 10.2491 10.8662 10.6405C10.4447 11.0318 9.90992 11.2281 9.25967 11.2281C8.60942 11.2281 8.05223 11.0318 7.63069 10.6405ZM11.1431 12.8856V24.8851H7.35265V12.8856H11.1431Z" fill="white"/>
<path d="M23.762 14.0714C24.5882 14.9686 25.0008 16.2 25.0008 17.7677V24.6736H21.4009V18.2544C21.4009 17.4638 21.1958 16.8493 20.7865 16.4119C20.3773 15.9745 19.8258 15.7547 19.1351 15.7547C18.4445 15.7547 17.8929 15.9734 17.4837 16.4119C17.0745 16.8493 16.8693 17.4638 16.8693 18.2544V24.6736H13.2482V12.8524H16.8693V14.4202C17.236 13.8976 17.7304 13.4849 18.3515 13.181C18.9726 12.8771 19.671 12.7257 20.448 12.7257C21.8314 12.7257 22.9368 13.1743 23.762 14.0703V14.0714Z" fill="white"/>
</svg>
